# xmcd
# Track frame offsets:
# 150
# 24277
# 43762
# 64520
# 77232
# 100967
# 118377
# 135680
# 165080
# 186052
# 207182
#
# Disc length: 3005 seconds
# Revision: 1
# Processed by: cddbd v1.4PL0 Copyright (c) Steve Scherf et al.
# Submitted via: VisiTrax 2.9.7.197 - For more info visit www.synapsa.com
#
DISCID=8d0bbb0b
DTITLE=Montgomery, Little Brother - Bajez Copper Station
DYEAR=1994
DGENRE=Blues - Piano
TTITLE0=Pinetop's Boogie
TTITLE1=Cow Cow Blues
TTITLE2=Doctor, Write Me A Prescription For The Blues
TTITLE3=Farrish Street Jive
TTITLE4=Vicksbury Blues
TTITLE5=Up The Country
TTITLE6=Big Flat Boogie
TTITLE7=Conny Vaughn Tremblin' Blues
TTITLE8=No Special Ride Blues
TTITLE9=Make Me Down A Pallet On The Floor
TTITLE10=Keep On Drinkin'
EXTD=Blues Beacon, BLU-1002 2
EXTT0=
EXTT1=
EXTT2=
EXTT3=
EXTT4=
EXTT5=
EXTT6=
EXTT7=
EXTT8=
EXTT9=
EXTT10=
PLAYORDER=
